<?xml version="1.0" encoding="UTF-8" standalone="no"?>
<svg
   viewBox="0 0 100 100"
   version="1.1"
   id="svg1"
   sodipodi:docname="logo.svg"
   inkscape:version="1.3.1 (9b9bdc1480, 2023-11-25, custom)"
   xmlns:inkscape="http://www.inkscape.org/namespaces/inkscape"
   xmlns:sodipodi="http://sodipodi.sourceforge.net/DTD/sodipodi-0.dtd"
   xmlns="http://www.w3.org/2000/svg"
   xmlns:svg="http://www.w3.org/2000/svg">
  <defs
     id="defs1" />
  <sodipodi:namedview
     id="namedview1"
     pagecolor="#ffffff"
     bordercolor="#999999"
     borderopacity="1"
     inkscape:showpageshadow="2"
     inkscape:pageopacity="0"
     inkscape:pagecheckerboard="0"
     inkscape:deskcolor="#d1d1d1"
     inkscape:zoom="4.8586542"
     inkscape:cx="25.933107"
     inkscape:cy="48.984758"
     inkscape:window-width="1440"
     inkscape:window-height="837"
     inkscape:window-x="0"
     inkscape:window-y="0"
     inkscape:window-maximized="1"
     inkscape:current-layer="svg1" />
  <path
     id="path1"
     style="stroke-width:0.63877"
     d="M 46.666903,24.378906 26.186434,65.339844 v 10.140625 h 7.705078 l 12.775391,-25.550781 12.77539,25.550781 h 12.775391 z" />
  <path
     d="M 46.674301,75.516224 72.225082,24.414662 97.775862,75.516224 H 85.000473 L 72.225082,49.965443 59.449691,75.516224 Z"
     fill="#000000"
     id="path1-5"
     style="stroke-width:0.63877" />
  <g
     id="path4"
     transform="translate(-16.596433,0.34049479)">
    <path
       style="color:#000000;fill:#000000;fill-opacity:0;stroke-linecap:round;stroke-linejoin:bevel;-inkscape-stroke:none"
       d="M 65.224327,50.087563 A 20.339874,20.339874 0 0 1 44.884453,70.427437 20.339874,20.339874 0 0 1 24.544579,50.087563 20.339874,20.339874 0 0 1 44.884453,29.747688 20.339874,20.339874 0 0 1 65.224327,50.087563 Z"
       id="path5" />
    <path
       id="path6"
       style="color:#000000;fill:#000000;stroke-linecap:round;stroke-linejoin:bevel;-inkscape-stroke:none"
       d="m 44.884766,24.417969 c -14.11338,0 -25.669922,11.556542 -25.669922,25.669922 0,14.113379 11.556542,25.667968 25.669922,25.667968 1.919721,0 3.7894,-0.220078 5.591796,-0.625 V 64.035156 c -1.725023,0.683534 -3.609316,1.0625 -5.591796,1.0625 -8.353381,0 -15.011719,-6.656386 -15.011719,-15.009765 0,-8.353381 6.658338,-15.011719 15.011719,-15.011719 1.98248,0 3.866773,0.378798 5.591796,1.0625 V 25.042969 c -1.802396,-0.404984 -3.672075,-0.625 -5.591796,-0.625 z" />
  </g>
  <rect
     style="fill:#000000;fill-opacity:1;stroke:#000000;stroke-width:16.3799;stroke-linecap:round;stroke-linejoin:miter;stroke-dasharray:none;stroke-opacity:0;paint-order:normal"
     id="rect6"
     width="48.761124"
     height="10.497407"
     x="33.814159"
     y="59.170017" />
</svg>
