<?xml version="1.0" encoding="UTF-8" standalone="no"?>
<svg
   viewBox="0 0 100 100"
   version="1.1"
   id="svg1"
   sodipodi:docname="logo.svg"
   inkscape:version="1.3.1 (9b9bdc1480, 2023-11-25, custom)"
   xmlns:inkscape="http://www.inkscape.org/namespaces/inkscape"
   xmlns:sodipodi="http://sodipodi.sourceforge.net/DTD/sodipodi-0.dtd"
   xmlns="http://www.w3.org/2000/svg"
   xmlns:svg="http://www.w3.org/2000/svg">
  <defs
     id="defs1" />
  <sodipodi:namedview
     id="namedview1"
     pagecolor="#ffffff"
     bordercolor="#999999"
     borderopacity="1"
     inkscape:showpageshadow="2"
     inkscape:pageopacity="0"
     inkscape:pagecheckerboard="0"
     inkscape:deskcolor="#d1d1d1"
     inkscape:zoom="4.8586542"
     inkscape:cx="25.933107"
     inkscape:cy="48.984758"
     inkscape:window-width="1440"
     inkscape:window-height="837"
     inkscape:window-x="0"
     inkscape:window-y="0"
     inkscape:window-maximized="1"
     inkscape:current-layer="svg1" />
  <path
     id="path1"
     style="stroke-width:0.832293"
     d="M 61.81363,17.578058 35.12836,70.948598 V 84.161446 H 45.167783 L 61.81363,50.869753 78.459476,84.161446 h 16.645847 z" />
  <g
     id="path4"
     transform="matrix(1.3029619,0,0,1.3029619,-20.616084,-13.743075)">
    <path
       style="color:#000000;fill:#000000;fill-opacity:0;stroke-linecap:round;stroke-linejoin:bevel;-inkscape-stroke:none"
       d="M 65.224327,50.087563 A 20.339874,20.339874 0 0 1 44.884453,70.427437 20.339874,20.339874 0 0 1 24.544579,50.087563 20.339874,20.339874 0 0 1 44.884453,29.747688 20.339874,20.339874 0 0 1 65.224327,50.087563 Z"
       id="path5" />
    <path
       id="path6"
       style="color:#000000;fill:#000000;stroke-linecap:round;stroke-linejoin:bevel;-inkscape-stroke:none"
       d="m 44.884766,24.417969 c -14.11338,0 -25.669922,11.556542 -25.669922,25.669922 0,14.113379 11.556542,25.667968 25.669922,25.667968 1.919721,0 3.7894,-0.220078 5.591796,-0.625 V 64.035156 c -1.725023,0.683534 -3.609316,1.0625 -5.591796,1.0625 -8.353381,0 -15.011719,-6.656386 -15.011719,-15.009765 0,-8.353381 6.658338,-15.011719 15.011719,-15.011719 1.98248,0 3.866773,0.378798 5.591796,1.0625 V 25.042969 c -1.802396,-0.404984 -3.672075,-0.625 -5.591796,-0.625 z" />
  </g>
</svg>